<svg height="16" viewBox="0 0 16 16" width="16" xmlns="http://www.w3.org/2000/svg"><g fill="#444"><path d="m5 16v-5.3c-.6-.3-1-1-1-1.7v-4c0-.7.4-1.3 1-1.7 0-.1 0-.2 0-.3 0-1.1-.9-2-2-2s-2 .9-2 2 .9 2 2 2h-2c-.5 0-1 .5-1 1v4c0 .5.5 1 1 1v5z"/><path d="m15 5h-2c1.1 0 2-.9 2-2s-.9-2-2-2-2 .9-2 2v.3c.6.4 1 1 1 1.7v4c0 .7-.4 1.4-1 1.7v5.3h4v-5c.5 0 1-.5 1-1v-4c0-.5-.5-1-1-1z"/><path d="m10 2c0 1.105-.895 2-2 2s-2-.895-2-2 .895-2 2-2 2 .895 2 2z"/><path d="m10 4h-4c-.5 0-1 .5-1 1v4c0 .5.5 1 1 1v6h4v-6c.5 0 1-.5 1-1v-4c0-.5-.5-1-1-1z"/></g></svg>